{"title":"Black.Ransom.2010.DVDRIP.XVID.FEEL-FREE","uid":5648520,"size":938707399,"categoryP":"video","categoryS":"movies","magnet":"?xt=urn:btih:c047c3521cb640b138b8f878c387fb41330b2c75&amp;dn=Black.Ransom.2010.DVDRIP.XVID.FEEL-FREE&amp;tr=udp%3A%2F%2Ftracker.openbittorrent.com%3A80&amp;tr=udp%3A%2F%2Fopen.demonii.com%3A1337&amp;tr=udp%3A%2F%2Ftracker.coppersurfer.tk%3A6969&amp;tr=udp%3A%2F%2Fexodus.desync.com%3A6969","seeders":0,"leechers":1,"uploader":"xenl","files":6,"time":1277536633,"description":"Genre:Action | Thriller\nLanguage:Cantonese\nIMDb:http://www.imdb.com/title/tt1572168/\nSource : DVD5 Retail\nSubtitles:English\nEncoder: Tony2\n..........................................\nGeneral\nComplete name : Black.Ransom.2010.DVDRIP.XVID.FEEL-FREE\nFormat : AVI\nFormat/Info : Audio Video Interleave\nFile size : 887 MiB\nDuration : 1h 32mn\nOverall bit rate : 1 340 Kbps\n..........................................\nVideo\nFormat : xvid\nCodec ID : xvid\nDuration : 1h 32mn\nBit rate : 1 199 Kbps\nWidth : 704 pixels\nHeight : 304 pixels\nDisplay aspect ratio : 2.35:1\nFrame rate : 23.976 fps\nResolution : 24 bits\nBits/(Pixel*Frame) : 0.234\nStream size : 794 MiB (89%)\n..........................................\nAudio\nID : 1\nFormat : MPEG Audio\nFormat version : Version 1\nFormat profile : Layer 3\nCodec ID : 55\nCodec ID/Hint : MP3\nDuration : 1h 32mn\nBit rate mode : Constant\nBit rate : 128 Kbps\nChannel(s) : 2 channels\nSampling rate : 48.0 KHz\nResolution : 16 bits\nStream size : 84.7 MiB (10%)\nAlignment : Aligned on interleaves\nInterleave, duration : 24 ms (0.58 video frame)","torrent":{"xt":"urn:btih:c047c3521cb640b138b8f878c387fb41330b2c75","amp;dn":"Black.Ransom.2010.DVDRIP.XVID.FEEL-FREE","amp;tr":["udp%3A%2F%2Ftracker.openbittorrent.com%3A80","udp%3A%2F%2Fopen.demonii.com%3A1337","udp%3A%2F%2Ftracker.coppersurfer.tk%3A6969","udp%3A%2F%2Fexodus.desync.com%3A6969"],"infoHash":"c047c3521cb640b138b8f878c387fb41330b2c75","infoHashBuffer":{"type":"Buffer","data":[192,71,195,82,28,182,64,177,56,184,248,120,195,135,251,65,51,11,44,117]},"announce":[],"urlList":[]}}